<svg xmlns="http://www.w3.org/2000/svg" xmlns:xlink="http://www.w3.org/1999/xlink" width="195" zoomAndPan="magnify" viewBox="0 0 146.25 146.250002" height="195" preserveAspectRatio="xMidYMid meet" version="1.0"><defs><clipPath id="c30496f0c0"><path d="M 0 0 L 145.503906 0 L 145.503906 145.503906 L 0 145.503906 Z M 0 0 " clip-rule="nonzero"/></clipPath><clipPath id="f0a0cfb31d"><path d="M 0 0 L 145.414062 0 L 145.414062 145.414062 L 0 145.414062 Z M 0 0 " clip-rule="nonzero"/></clipPath><clipPath id="7a114e462c"><path d="M 0 0 L 145.386719 0 L 145.386719 145.386719 L 0 145.386719 Z M 0 0 " clip-rule="nonzero"/></clipPath><clipPath id="4c2f0fa9a1"><rect x="0" width="146" y="0" height="146"/></clipPath><clipPath id="41f9aa2896"><rect x="0" width="146" y="0" height="146"/></clipPath></defs><g clip-path="url(#c30496f0c0)"><g transform="matrix(1, 0, 0, 1, 0, 0.000000000000035897)"><g clip-path="url(#41f9aa2896)"><g clip-path="url(#f0a0cfb31d)"><g transform="matrix(1, 0, 0, 1, 0, 0.000000000000035897)"><g clip-path="url(#4c2f0fa9a1)"><g clip-path="url(#7a114e462c)"><path fill="#ffffff" d="M 0 0 L 145.386719 0 L 145.386719 145.386719 L 0 145.386719 Z M 0 0 " fill-opacity="1" fill-rule="nonzero"/></g><path stroke-linecap="butt" transform="matrix(4.405691, 0, 0, 4.405691, 0.000000000000106103, 0.00000796429)" fill-opacity="1" fill="#ffffff" fill-rule="nonzero" stroke-linejoin="miter" d="M 2.000254 2.500315 L 9.000254 2.500315 M 10.000381 2.500315 L 10.999621 2.500315 M 11.999748 2.500315 L 12.999875 2.500315 M 15.000129 2.500315 L 17.000382 2.500315 M 18.999749 2.500315 L 21.000003 2.500315 M 24.000383 2.500315 L 31.000384 2.500315 M 2.000254 3.500442 L 3.00038 3.500442 M 8.000128 3.500442 L 9.000254 3.500442 M 10.000381 3.500442 L 12.999875 3.500442 M 16.000255 3.500442 L 17.000382 3.500442 M 18.999749 3.500442 L 23.000256 3.500442 M 24.000383 3.500442 L 24.999623 3.500442 M 30.000257 3.500442 L 31.000384 3.500442 M 2.000254 4.499682 L 3.00038 4.499682 M 3.999621 4.499682 L 7.000001 4.499682 M 8.000128 4.499682 L 9.000254 4.499682 M 10.000381 4.499682 L 11.999748 4.499682 M 12.999875 4.499682 L 17.000382 4.499682 M 22.000129 4.499682 L 23.000256 4.499682 M 24.000383 4.499682 L 24.999623 4.499682 M 25.99975 4.499682 L 29.00013 4.499682 M 30.000257 4.499682 L 31.000384 4.499682 M 2.000254 5.499809 L 3.00038 5.499809 M 3.999621 5.499809 L 7.000001 5.499809 M 8.000128 5.499809 L 9.000254 5.499809 M 10.999621 5.499809 L 11.999748 5.499809 M 15.000129 5.499809 L 16.000255 5.499809 M 17.000382 5.499809 L 19.999876 5.499809 M 21.000003 5.499809 L 23.000256 5.499809 M 24.000383 5.499809 L 24.999623 5.499809 M 25.99975 5.499809 L 29.00013 5.499809 M 30.000257 5.499809 L 31.000384 5.499809 M 2.000254 6.499936 L 3.00038 6.499936 M 3.999621 6.499936 L 7.000001 6.499936 M 8.000128 6.499936 L 9.000254 6.499936 M 10.000381 6.499936 L 10.999621 6.499936 M 12.999875 6.499936 L 14.000002 6.499936 M 16.000255 6.499936 L 17.000382 6.499936 M 19.999876 6.499936 L 23.000256 6.499936 M 24.000383 6.499936 L 24.999623 6.499936 M 25.99975 6.499936 L 29.00013 6.499936 M 30.000257 6.499936 L 31.000384 6.499936 M 2.000254 7.500062 L 3.00038 7.500062 M 8.000128 7.500062 L 9.000254 7.500062 M 10.999621 7.500062 L 12.999875 7.500062 M 17.999622 7.500062 L 18.999749 7.500062 M 22.000129 7.500062 L 23.000256 7.500062 M 24.000383 7.500062 L 24.999623 7.500062 M 30.000257 7.500062 L 31.000384 7.500062 M 2.000254 8.500189 L 9.000254 8.500189 M 10.000381 8.500189 L 10.999621 8.500189 M 11.999748 8.500189 L 12.999875 8.500189 M 14.000002 8.500189 L 15.000129 8.500189 M 16.000255 8.500189 L 17.000382 8.500189 M 17.999622 8.500189 L 18.999749 8.500189 M 19.999876 8.500189 L 21.000003 8.500189 M 22.000129 8.500189 L 23.000256 8.500189 M 24.000383 8.500189 L 31.000384 8.500189 M 10.999621 9.500316 L 16.000255 9.500316 M 17.000382 9.500316 L 17.999622 9.500316 M 21.000003 9.500316 L 22.000129 9.500316 M 2.000254 10.500443 L 3.00038 10.500443 M 4.999747 10.500443 L 10.999621 10.500443 M 12.999875 10.500443 L 14.000002 10.500443 M 16.000255 10.500443 L 17.999622 10.500443 M 18.999749 10.500443 L 19.999876 10.500443 M 23.000256 10.500443 L 24.000383 10.500443 M 25.99975 10.500443 L 26.999877 10.500443 M 28.000004 10.500443 L 31.000384 10.500443 M 2.000254 11.499683 L 3.999621 11.499683 M 4.999747 11.499683 L 7.000001 11.499683 M 9.000254 11.499683 L 10.000381 11.499683 M 16.000255 11.499683 L 17.999622 11.499683 M 18.999749 11.499683 L 22.000129 11.499683 M 24.999623 11.499683 L 26.999877 11.499683 M 28.000004 11.499683 L 30.000257 11.499683 M 3.00038 12.49981 L 4.999747 12.49981 M 7.000001 12.49981 L 9.000254 12.49981 M 10.000381 12.49981 L 10.999621 12.49981 M 15.000129 12.49981 L 16.000255 12.49981 M 17.000382 12.49981 L 19.999876 12.49981 M 23.000256 12.49981 L 25.99975 12.49981 M 28.000004 12.49981 L 29.00013 12.49981 M 3.00038 13.499937 L 3.999621 13.499937 M 10.000381 13.499937 L 10.999621 13.499937 M 11.999748 13.499937 L 12.999875 13.499937 M 18.999749 13.499937 L 19.999876 13.499937 M 23.000256 13.499937 L 24.999623 13.499937 M 26.999877 13.499937 L 28.000004 13.499937 M 30.000257 13.499937 L 31.000384 13.499937 M 8.000128 14.500063 L 9.000254 14.500063 M 10.000381 14.500063 L 10.999621 14.500063 M 12.999875 14.500063 L 15.000129 14.500063 M 17.000382 14.500063 L 17.999622 14.500063 M 19.999876 14.500063 L 23.000256 14.500063 M 24.000383 14.500063 L 25.99975 14.500063 M 30.000257 14.500063 L 31.000384 14.500063 M 2.000254 15.50019 L 4.999747 15.50019 M 10.000381 15.50019 L 11.999748 15.50019 M 12.999875 15.50019 L 21.000003 15.50019 M 24.000383 15.50019 L 24.999623 15.50019 M 25.99975 15.50019 L 31.000384 15.50019 M 2.000254 16.500317 L 3.00038 16.500317 M 3.999621 16.500317 L 4.999747 16.500317 M 5.999874 16.500317 L 7.000001 16.500317 M 8.000128 16.500317 L 11.999748 16.500317 M 15.000129 16.500317 L 17.999622 16.500317 M 18.999749 16.500317 L 19.999876 16.500317 M 21.000003 16.500317 L 22.000129 16.500317 M 24.999623 16.500317 L 25.99975 16.500317 M 28.000004 16.500317 L 29.00013 16.500317 M 30.000257 16.500317 L 31.000384 16.500317 M 2.000254 17.499557 L 5.999874 17.499557 M 11.999748 17.499557 L 15.000129 17.499557 M 17.000382 17.499557 L 17.999622 17.499557 M 21.000003 17.499557 L 23.000256 17.499557 M 24.999623 17.499557 L 26.999877 17.499557 M 28.000004 17.499557 L 29.00013 17.499557 M 30.000257 17.499557 L 31.000384 17.499557 M 2.000254 18.499684 L 3.00038 18.499684 M 3.999621 18.499684 L 10.000381 18.499684 M 12.999875 18.499684 L 14.000002 18.499684 M 15.000129 18.499684 L 17.000382 18.499684 M 26.999877 18.499684 L 28.000004 18.499684 M 2.000254 19.499811 L 3.999621 19.499811 M 11.999748 19.499811 L 12.999875 19.499811 M 14.000002 19.499811 L 16.000255 19.499811 M 17.000382 19.499811 L 17.999622 19.499811 M 18.999749 19.499811 L 19.999876 19.499811 M 21.000003 19.499811 L 24.000383 19.499811 M 25.99975 19.499811 L 26.999877 19.499811 M 28.000004 19.499811 L 30.000257 19.499811 M 2.000254 20.499937 L 4.999747 20.499937 M 5.999874 20.499937 L 10.000381 20.499937 M 17.000382 20.499937 L 18.999749 20.499937 M 19.999876 20.499937 L 22.000129 20.499937 M 23.000256 20.499937 L 24.999623 20.499937 M 26.999877 20.499937 L 28.000004 20.499937 M 30.000257 20.499937 L 31.000384 20.499937 M 2.000254 21.500064 L 3.999621 21.500064 M 4.999747 21.500064 L 5.999874 21.500064 M 9.000254 21.500064 L 12.999875 21.500064 M 14.000002 21.500064 L 16.000255 21.500064 M 23.000256 21.500064 L 29.00013 21.500064 M 2.000254 22.500191 L 3.999621 22.500191 M 5.999874 22.500191 L 7.000001 22.500191 M 8.000128 22.500191 L 10.000381 22.500191 M 10.999621 22.500191 L 16.000255 22.500191 M 17.999622 22.500191 L 19.999876 22.500191 M 21.000003 22.500191 L 30.000257 22.500191 M 10.000381 23.500318 L 10.999621 23.500318 M 12.999875 23.500318 L 14.000002 23.500318 M 15.000129 23.500318 L 17.999622 23.500318 M 18.999749 23.500318 L 21.000003 23.500318 M 22.000129 23.500318 L 23.000256 23.500318 M 25.99975 23.500318 L 28.000004 23.500318 M 2.000254 24.499558 L 9.000254 24.499558 M 10.000381 24.499558 L 11.999748 24.499558 M 15.000129 24.499558 L 16.000255 24.499558 M 17.000382 24.499558 L 17.999622 24.499558 M 18.999749 24.499558 L 23.000256 24.499558 M 24.000383 24.499558 L 24.999623 24.499558 M 25.99975 24.499558 L 28.000004 24.499558 M 2.000254 25.499685 L 3.00038 25.499685 M 8.000128 25.499685 L 9.000254 25.499685 M 10.000381 25.499685 L 11.999748 25.499685 M 15.000129 25.499685 L 16.000255 25.499685 M 17.999622 25.499685 L 19.999876 25.499685 M 21.000003 25.499685 L 23.000256 25.499685 M 25.99975 25.499685 L 26.999877 25.499685 M 29.00013 25.499685 L 31.000384 25.499685 M 2.000254 26.499812 L 3.00038 26.499812 M 3.999621 26.499812 L 7.000001 26.499812 M 8.000128 26.499812 L 9.000254 26.499812 M 10.000381 26.499812 L 10.999621 26.499812 M 15.000129 26.499812 L 16.000255 26.499812 M 17.999622 26.499812 L 18.999749 26.499812 M 21.000003 26.499812 L 28.000004 26.499812 M 29.00013 26.499812 L 30.000257 26.499812 M 2.000254 27.499938 L 3.00038 27.499938 M 3.999621 27.499938 L 7.000001 27.499938 M 8.000128 27.499938 L 9.000254 27.499938 M 10.000381 27.499938 L 10.999621 27.499938 M 11.999748 27.499938 L 14.000002 27.499938 M 15.000129 27.499938 L 19.999876 27.499938 M 22.000129 27.499938 L 24.000383 27.499938 M 24.999623 27.499938 L 25.99975 27.499938 M 30.000257 27.499938 L 31.000384 27.499938 M 2.000254 28.500065 L 3.00038 28.500065 M 3.999621 28.500065 L 7.000001 28.500065 M 8.000128 28.500065 L 9.000254 28.500065 M 10.999621 28.500065 L 12.999875 28.500065 M 16.000255 28.500065 L 18.999749 28.500065 M 19.999876 28.500065 L 22.000129 28.500065 M 24.999623 28.500065 L 26.999877 28.500065 M 28.000004 28.500065 L 31.000384 28.500065 M 2.000254 29.500192 L 3.00038 29.500192 M 8.000128 29.500192 L 9.000254 29.500192 M 10.999621 29.500192 L 12.999875 29.500192 M 15.000129 29.500192 L 17.000382 29.500192 M 19.999876 29.500192 L 21.000003 29.500192 M 23.000256 29.500192 L 25.99975 29.500192 M 26.999877 29.500192 L 29.00013 29.500192 M 30.000257 29.500192 L 31.000384 29.500192 M 2.000254 30.500319 L 9.000254 30.500319 M 10.000381 30.500319 L 10.999621 30.500319 M 15.000129 30.500319 L 16.000255 30.500319 M 17.000382 30.500319 L 18.999749 30.500319 M 21.000003 30.500319 L 24.000383 30.500319 M 25.99975 30.500319 L 28.000004 30.500319 " stroke="#000000" stroke-width="1" stroke-opacity="1" stroke-miterlimit="4"/></g></g></g></g></g></g></svg>